<!-- Generator: Adobe Illustrator 19.0.0, SVG Export Plug-In  -->
<svg version="1.1"
	 xmlns="http://www.w3.org/2000/svg" xmlns:xlink="http://www.w3.org/1999/xlink" xmlns:a="http://ns.adobe.com/AdobeSVGViewerExtensions/3.0/"
	 x="0px" y="0px" width="391.4px" height="110px" viewBox="0 0 391.4 110" style="enable-background:new 0 0 391.4 110;"
	 xml:space="preserve">
<style type="text/css">
	.st0{fill:#FFFFFF;}
	.st1{fill:#626366;}
	.st2{fill:#98C155;}
	.st3{fill:#67A653;}
</style>
<defs>
</defs>
<g id="XMLID_92_">
	<rect id="XMLID_240_" x="0.1" class="st0" width="391.3" height="110"/>
	<g id="XMLID_93_">
		<g id="XMLID_213_">
			<path id="XMLID_237_" class="st1" d="M205,46.1V32.8h3.9c2.4,0,4.2,0.6,5.5,1.7c1.3,1.1,1.9,2.8,1.9,5c0,2.2-0.6,3.9-1.9,5
				c-1.3,1.1-3.1,1.7-5.5,1.7H205z M206.8,44.7h2.3c1.8,0,3.2-0.4,4.1-1.3c0.9-0.8,1.4-2.2,1.4-4c0-1.8-0.5-3.1-1.4-4
				c-0.9-0.8-2.3-1.3-4.1-1.3h-2.3V44.7z"/>
			<path id="XMLID_234_" class="st1" d="M218.8,34.6v-1.4h1.8v1.4H218.8z M218.8,46.1v-9.5h1.7v9.5H218.8z"/>
			<path id="XMLID_232_" class="st1" d="M226.2,46.1l-3.8-9.5h1.8l2.9,7.7h0l2.9-7.7h1.7l-3.8,9.5H226.2z"/>
			<path id="XMLID_229_" class="st1" d="M233.6,34.6v-1.4h1.8v1.4H233.6z M233.6,46.1v-9.5h1.7v9.5H233.6z"/>
			<path id="XMLID_227_" class="st1" d="M242.1,46.3c-2.1,0-3.6-0.5-4.6-1.6l1-0.9c0.9,0.9,2,1.3,3.3,1.3c1.7,0,2.5-0.5,2.5-1.5
				c0-0.5-0.2-0.8-0.6-1c-0.4-0.2-1.2-0.5-2.3-0.7c-1.1-0.2-2-0.6-2.6-1c-0.6-0.4-0.9-1-0.9-1.8c0-0.8,0.3-1.4,1-1.9
				c0.7-0.5,1.6-0.7,2.7-0.7c1.6,0,3,0.5,4,1.4l-0.9,1c-0.9-0.8-1.9-1.1-3-1.1c-0.7,0-1.2,0.1-1.6,0.4c-0.3,0.2-0.5,0.6-0.5,1
				c0,0.4,0.2,0.7,0.6,0.9c0.4,0.2,1,0.4,1.7,0.6c0.8,0.2,1.4,0.3,1.8,0.4c0.4,0.1,0.8,0.3,1.2,0.5c0.8,0.4,1.2,1.1,1.1,2
				c0,0.9-0.4,1.6-1.2,2.1C244.1,46.1,243.2,46.3,242.1,46.3z"/>
			<path id="XMLID_224_" class="st1" d="M248.3,34.6v-1.4h1.8v1.4H248.3z M248.3,46.1v-9.5h1.7v9.5H248.3z"/>
			<path id="XMLID_221_" class="st1" d="M257.2,46.3c-1.4,0-2.5-0.4-3.4-1.3c-0.9-0.9-1.4-2.1-1.4-3.6c0-1.6,0.5-2.8,1.4-3.7
				c0.9-0.9,2.1-1.3,3.4-1.3c1.4,0,2.5,0.4,3.4,1.3c0.9,0.9,1.4,2.1,1.4,3.7c0,1.6-0.5,2.8-1.4,3.6
				C259.7,45.9,258.6,46.3,257.2,46.3z M254.9,44c0.5,0.7,1.3,1,2.3,1c1,0,1.8-0.3,2.3-1c0.6-0.7,0.8-1.5,0.8-2.6
				c0-1.1-0.3-2-0.8-2.6c-0.5-0.7-1.3-1-2.3-1c-1,0-1.8,0.3-2.3,1c-0.6,0.7-0.8,1.5-0.8,2.6C254,42.4,254.3,43.3,254.9,44z"/>
			<path id="XMLID_219_" class="st1" d="M264.3,46.1v-9.5h1.7V38c1.2-1.1,2.5-1.6,3.9-1.6c1,0,1.8,0.2,2.3,0.7
				c0.5,0.5,0.8,1.2,0.8,2.1v6.9h-1.7v-6.5c0-0.6-0.2-1.1-0.5-1.4c-0.3-0.3-0.8-0.4-1.5-0.4c-1.1,0-2.2,0.5-3.4,1.5v6.8H264.3z"/>
			<path id="XMLID_216_" class="st1" d="M284.5,46.3c-1.4,0-2.5-0.4-3.4-1.3c-0.9-0.9-1.4-2.1-1.4-3.6c0-1.6,0.5-2.8,1.4-3.7
				c0.9-0.9,2.1-1.3,3.4-1.3c1.4,0,2.5,0.4,3.4,1.3c0.9,0.9,1.4,2.1,1.4,3.7c0,1.6-0.5,2.8-1.4,3.6
				C286.9,45.9,285.8,46.3,284.5,46.3z M282.1,44c0.5,0.7,1.3,1,2.3,1c1,0,1.8-0.3,2.3-1c0.6-0.7,0.8-1.5,0.8-2.6
				c0-1.1-0.3-2-0.8-2.6c-0.5-0.7-1.3-1-2.3-1c-1,0-1.8,0.3-2.3,1c-0.6,0.7-0.8,1.5-0.8,2.6C281.3,42.4,281.6,43.3,282.1,44z"/>
			<path id="XMLID_214_" class="st1" d="M295.5,32.7c0.4,0,0.7,0,1,0.1V34c-0.2,0-0.4-0.1-0.7-0.1c-1.1,0-1.7,0.4-1.7,1.3v1.3h2.3
				v1.3h-2.3v8.3h-1.7v-8.3h-1.8v-1.3h1.8v-1.3C292.4,33.6,293.4,32.7,295.5,32.7z"/>
		</g>
		<g id="XMLID_120_">
			<path id="XMLID_211_" class="st1" d="M205.1,71.7V55.3h11.1v1.8h-8.9v5.1h6.6V64h-6.6v6h9.4v1.8H205.1z"/>
			<path id="XMLID_209_" class="st1" d="M219.3,71.7V60h2.1v1.7c1.5-1.3,3.1-2,4.8-2c1.2,0,2.2,0.3,2.8,0.9c0.7,0.6,1,1.5,1,2.6v8.4
				h-2.1v-8c0-0.8-0.2-1.4-0.6-1.7c-0.4-0.4-1-0.6-1.8-0.6c-1.3,0-2.7,0.6-4.2,1.9v8.4H219.3z"/>
			<path id="XMLID_207_" class="st1" d="M236.7,71.8L232,60h2.2l3.6,9.5h0.1l3.6-9.5h2.1l-4.7,11.7H236.7z"/>
			<path id="XMLID_204_" class="st1" d="M245.8,57.5v-1.8h2.2v1.8H245.8z M245.8,71.7V60h2.1v11.7H245.8z"/>
			<path id="XMLID_202_" class="st1" d="M251.5,71.7V60h2.1v2.2h0c1.1-1.6,2.8-2.4,5-2.4h0.3l-0.1,1.8c0,0-0.2,0-0.6,0
				c-2,0-3.5,0.9-4.5,2.6v7.5H251.5z"/>
			<path id="XMLID_199_" class="st1" d="M266.3,72c-1.7,0-3.1-0.5-4.2-1.6c-1.2-1.1-1.7-2.6-1.7-4.5c0-1.9,0.6-3.4,1.7-4.5
				c1.2-1.1,2.6-1.6,4.2-1.6c1.7,0,3.1,0.5,4.2,1.6c1.2,1.1,1.7,2.6,1.7,4.5c0,1.9-0.6,3.4-1.7,4.5C269.3,71.4,267.9,72,266.3,72z
				 M263.4,69.1c0.7,0.8,1.6,1.3,2.8,1.3c1.2,0,2.2-0.4,2.9-1.2c0.7-0.8,1-1.9,1-3.2c0-1.3-0.3-2.4-1-3.3c-0.7-0.8-1.6-1.3-2.8-1.3
				c-1.2,0-2.2,0.4-2.9,1.2c-0.7,0.8-1,1.9-1,3.2C262.4,67.2,262.7,68.3,263.4,69.1z"/>
			<path id="XMLID_197_" class="st1" d="M275,71.7V60h2.1v1.7c1.5-1.3,3.1-2,4.8-2c1.2,0,2.2,0.3,2.8,0.9c0.7,0.6,1,1.5,1,2.6v8.4
				h-2.1v-8c0-0.8-0.2-1.4-0.6-1.7c-0.4-0.4-1-0.6-1.8-0.6c-1.3,0-2.7,0.6-4.2,1.9v8.4H275z"/>
			<path id="XMLID_195_" class="st1" d="M289.1,71.7V60h2.1v1.8c1.5-1.3,3-2,4.6-2c1.9,0,3.1,0.7,3.5,2.1c1.5-1.4,3.1-2.1,4.7-2.1
				c1.3,0,2.2,0.3,2.8,0.9c0.6,0.6,0.9,1.5,0.9,2.6v8.4h-2.1v-8c0-0.8-0.2-1.4-0.5-1.7c-0.3-0.4-0.9-0.5-1.7-0.5
				c-1.2,0-2.5,0.6-4,1.9v8.4h-2.1v-8c0-0.8-0.2-1.4-0.5-1.7c-0.3-0.4-0.9-0.5-1.7-0.5c-1.2,0-2.5,0.6-4,1.9v8.4H289.1z"/>
			<path id="XMLID_192_" class="st1" d="M316.2,72c-1.6,0-3-0.5-4.1-1.6c-1.1-1.1-1.7-2.6-1.7-4.5c0-1,0.2-1.9,0.5-2.7
				c0.6-1.4,1.7-2.4,3.2-3c0.7-0.2,1.4-0.4,2.1-0.4c1.6,0,2.9,0.5,3.9,1.6c1,1,1.5,2.6,1.5,4.6v0.4h-9.1c0,1.3,0.4,2.3,1.1,3
				c0.7,0.7,1.6,1.1,2.6,1.1c1,0,1.8-0.2,2.4-0.5c0.6-0.3,1.1-0.8,1.7-1.4l1.2,1C320.2,71.1,318.5,72,316.2,72z M318.6,62.3
				c-0.6-0.6-1.4-0.9-2.3-0.9c-1,0-1.8,0.3-2.5,0.9c-0.7,0.6-1.1,1.5-1.2,2.6h7C319.5,63.8,319.2,62.9,318.6,62.3z"/>
			<path id="XMLID_190_" class="st1" d="M324.4,71.7V60h2.1v1.7c1.5-1.3,3.1-2,4.8-2c1.2,0,2.2,0.3,2.8,0.9c0.7,0.6,1,1.5,1,2.6v8.4
				H333v-8c0-0.8-0.2-1.4-0.6-1.7c-0.4-0.4-1-0.6-1.8-0.6c-1.3,0-2.7,0.6-4.2,1.9v8.4H324.4z"/>
			<path id="XMLID_188_" class="st1" d="M342.9,71.9c-1.3,0-2.2-0.2-2.8-0.7c-0.5-0.5-0.8-1.2-0.8-2.3v-7.3h-2.2V60h2.2v-4.2h2.1V60
				h3.3v1.5h-3.3v6.9c0,0.7,0.1,1.1,0.4,1.4c0.3,0.3,0.7,0.4,1.4,0.4c0.6,0,1.1-0.1,1.5-0.2v1.6C344.3,71.8,343.7,71.9,342.9,71.9z"
				/>
			<path id="XMLID_185_" class="st1" d="M355.7,71.9c-1.1,0-2-0.3-2.7-0.8c-0.7-0.5-1-1.3-1-2.2c0-1.3,0.7-2.3,2-3.1
				c1.3-0.8,3.5-1.4,6.6-1.8v-0.5c0-1.4-0.8-2.1-2.4-2.1c-1.6,0-3.2,0.6-4.7,1.7l-1.1-1.2c1.7-1.4,3.7-2.2,6-2.2
				c2.9,0,4.3,1.3,4.3,3.8v5.2c0,1.4,0.1,2.4,0.4,2.9H361c-0.2-0.6-0.3-1.1-0.3-1.6C359.3,71.3,357.6,71.9,355.7,71.9z M356.3,70.4
				c1.6,0,3.1-0.6,4.4-1.7v-3.3c-2.4,0.3-4,0.8-5,1.3c-1,0.5-1.5,1.2-1.5,1.9c0,0.6,0.2,1,0.6,1.3C355.1,70.2,355.6,70.4,356.3,70.4
				z"/>
			<path id="XMLID_183_" class="st1" d="M366.1,71.7V60h2.1v1.7c1.5-1.3,3.1-2,4.8-2c1.2,0,2.2,0.3,2.8,0.9c0.7,0.6,1,1.5,1,2.6v8.4
				h-2.1v-8c0-0.8-0.2-1.4-0.6-1.7c-0.4-0.4-1-0.6-1.8-0.6c-1.3,0-2.7,0.6-4.2,1.9v8.4H366.1z"/>
			<path id="XMLID_180_" class="st1" d="M384.7,71.9c-1.6,0-2.8-0.5-3.8-1.5c-1-1-1.5-2.5-1.5-4.5c0-2,0.5-3.5,1.5-4.5
				c1-1.1,2.3-1.6,3.9-1.6c1.6,0,3,0.6,4.1,1.7v-6.2h2.1v13.5c0,1.4,0.1,2.4,0.4,2.9h-2.2c-0.2-0.5-0.3-1-0.3-1.6
				C387.7,71.3,386.3,71.9,384.7,71.9z M385.3,70.3c1.2,0,2.4-0.6,3.6-1.8v-5.4c-1.2-1.2-2.3-1.8-3.6-1.8c-1.2,0-2.2,0.4-2.8,1.1
				c-0.7,0.8-1,1.9-1,3.3s0.3,2.6,1,3.4C383.2,70,384.1,70.3,385.3,70.3z"/>
			<path id="XMLID_177_" class="st1" d="M217.4,90.3c0,1.3-0.6,2.4-1.8,3.3c-1.2,0.8-2.7,1.3-4.5,1.3c-1.8,0-3.3-0.4-4.5-1.2
				c-1.2-0.8-2-1.8-2.5-3.1l1.8-0.7c0.9,2.2,2.6,3.3,5.1,3.3c1.3,0,2.3-0.2,3.1-0.7c0.8-0.5,1.1-1.1,1.1-2c0-0.8-0.3-1.5-0.9-2
				c-0.6-0.5-1.9-1-3.9-1.5c-1.9-0.5-3.4-1.1-4.3-1.8c-0.9-0.6-1.4-1.6-1.4-2.9c0-1.3,0.5-2.3,1.6-3.2c1.1-0.8,2.4-1.2,4.1-1.2
				c1.7,0,3,0.3,4.1,1c1.1,0.7,1.8,1.6,2.4,2.7l-1.7,0.9c-0.9-1.8-2.5-2.8-4.7-2.8c-1.1,0-2,0.2-2.7,0.7c-0.7,0.4-1,1.1-1,1.8
				c0,0.8,0.3,1.4,1,1.8c0.7,0.4,1.9,0.9,3.9,1.5c1.9,0.5,3.4,1.2,4.3,1.9C217,87.9,217.4,89,217.4,90.3z"/>
			<path id="XMLID_174_" class="st1" d="M224.1,94.7c-1.2,0-2.2-0.3-2.8-0.9c-0.7-0.6-1-1.5-1-2.6v-8.4h2.1v8c0,0.8,0.2,1.4,0.6,1.7
				c0.4,0.4,1,0.6,1.8,0.6c1.3,0,2.7-0.6,4.2-1.9v-8.4h2.1v11.7H229v-1.8C227.5,94.1,225.9,94.7,224.1,94.7z"/>
			<path id="XMLID_171_" class="st1" d="M239.2,94.7c-2.5,0-4.4-0.7-5.6-2l1.3-1.1c1.1,1.1,2.5,1.6,4,1.6c2.1,0,3.1-0.6,3.1-1.8
				c0-0.6-0.3-1-0.8-1.3c-0.5-0.3-1.5-0.6-2.8-0.9c-1.4-0.3-2.5-0.7-3.2-1.2c-0.8-0.5-1.2-1.2-1.2-2.2c0-1,0.4-1.8,1.3-2.4
				c0.8-0.6,1.9-0.9,3.3-0.9c2,0,3.6,0.6,5,1.7l-1.1,1.3c-1.1-0.9-2.3-1.4-3.7-1.4c-0.9,0-1.5,0.1-2,0.4c-0.4,0.3-0.6,0.7-0.6,1.2
				c0,0.5,0.2,0.9,0.7,1.1c0.5,0.3,1.2,0.5,2.1,0.7c1,0.2,1.7,0.4,2.2,0.6c0.5,0.2,1,0.4,1.5,0.6c0.9,0.5,1.4,1.4,1.4,2.5
				c0,1.1-0.5,2-1.5,2.6C241.7,94.4,240.6,94.7,239.2,94.7z"/>
			<path id="XMLID_167_" class="st1" d="M251.3,94.7c-1.3,0-2.2-0.2-2.8-0.7c-0.5-0.5-0.8-1.2-0.8-2.3v-7.3h-2.2v-1.5h2.2v-4.2h2.1
				v4.2h3.3v1.5h-3.3v6.9c0,0.7,0.1,1.1,0.4,1.4c0.3,0.3,0.7,0.4,1.4,0.4c0.6,0,1.1-0.1,1.5-0.2v1.6C252.6,94.6,252,94.7,251.3,94.7
				z"/>
			<path id="XMLID_163_" class="st1" d="M258.6,94.7c-1.1,0-2-0.3-2.7-0.8c-0.7-0.5-1-1.3-1-2.2c0-1.3,0.7-2.3,2-3.1
				c1.3-0.8,3.5-1.4,6.6-1.8v-0.5c0-1.4-0.8-2.1-2.4-2.1c-1.6,0-3.2,0.6-4.7,1.7l-1.1-1.2c1.7-1.4,3.7-2.2,6-2.2
				c2.9,0,4.3,1.3,4.3,3.8v5.2c0,1.4,0.1,2.4,0.4,2.9h-2.2c-0.2-0.6-0.3-1.1-0.3-1.6C262.1,94.1,260.5,94.7,258.6,94.7z M259.2,93.2
				c1.6,0,3.1-0.6,4.4-1.7v-3.3c-2.4,0.3-4,0.8-5,1.3c-1,0.5-1.5,1.2-1.5,1.9c0,0.6,0.2,1,0.6,1.3C258,93,258.5,93.2,259.2,93.2z"/>
			<path id="XMLID_158_" class="st1" d="M269,80.3v-1.8h2.2v1.8H269z M269.1,94.5V82.8h2.1v11.7H269.1z"/>
			<path id="XMLID_153_" class="st1" d="M274.8,94.5V82.8h2.1v1.7c1.5-1.3,3.1-2,4.8-2c1.2,0,2.2,0.3,2.8,0.9c0.7,0.6,1,1.5,1,2.6
				v8.4h-2.1v-8c0-0.8-0.2-1.4-0.6-1.7c-0.4-0.4-1-0.6-1.8-0.6c-1.3,0-2.7,0.6-4.2,1.9v8.4H274.8z"/>
			<path id="XMLID_147_" class="st1" d="M291.7,94.7c-1.1,0-2-0.3-2.7-0.8c-0.7-0.5-1-1.3-1-2.2c0-1.3,0.7-2.3,2-3.1
				c1.3-0.8,3.5-1.4,6.6-1.8v-0.5c0-1.4-0.8-2.1-2.4-2.1c-1.6,0-3.2,0.6-4.7,1.7l-1.1-1.2c1.7-1.4,3.7-2.2,6-2.2
				c2.9,0,4.3,1.3,4.3,3.8v5.2c0,1.4,0.1,2.4,0.4,2.9H297c-0.2-0.6-0.3-1.1-0.3-1.6C295.3,94.1,293.6,94.7,291.7,94.7z M292.3,93.2
				c1.6,0,3.1-0.6,4.4-1.7v-3.3c-2.4,0.3-4,0.8-5,1.3c-1,0.5-1.5,1.2-1.5,1.9c0,0.6,0.2,1,0.6,1.3C291.1,93,291.6,93.2,292.3,93.2z"
				/>
			<path id="XMLID_142_" class="st1" d="M308.4,82.6c1.6,0,2.8,0.5,3.8,1.6c1,1,1.5,2.5,1.5,4.5c0,2-0.5,3.5-1.5,4.5
				c-1,1-2.3,1.6-3.8,1.6c-1.6,0-3-0.6-4.1-1.7v1.5h-2.1V78.1h2.1v6.3C305.4,83.2,306.8,82.6,308.4,82.6z M307.8,93.1
				c2.5,0,3.8-1.5,3.8-4.5c0-1.4-0.3-2.6-1-3.3c-0.7-0.8-1.5-1.1-2.6-1.1c-1.3,0-2.5,0.6-3.7,1.8v5.4
				C305.3,92.5,306.5,93.1,307.8,93.1z"/>
			<path id="XMLID_137_" class="st1" d="M316.5,80.3v-1.8h2.2v1.8H316.5z M316.6,94.5V82.8h2.1v11.7H316.6z"/>
			<path id="XMLID_134_" class="st1" d="M322.4,94.5V78.1h2.1v16.4H322.4z"/>
			<path id="XMLID_128_" class="st1" d="M328.2,80.3v-1.8h2.2v1.8H328.2z M328.3,94.5V82.8h2.1v11.7H328.3z"/>
			<path id="XMLID_125_" class="st1" d="M338.5,94.7c-1.3,0-2.2-0.2-2.8-0.7c-0.5-0.5-0.8-1.2-0.8-2.3v-7.3h-2.2v-1.5h2.2v-4.2h2.1
				v4.2h3.3v1.5H337v6.9c0,0.7,0.1,1.1,0.4,1.4c0.3,0.3,0.7,0.4,1.4,0.4c0.6,0,1.1-0.1,1.5-0.2v1.6
				C339.8,94.6,339.2,94.7,338.5,94.7z"/>
			<path id="XMLID_122_" class="st1" d="M343.8,99c-1,0-1.9-0.1-2.6-0.3l0.5-1.5c0.6,0.1,1.2,0.2,1.9,0.2c0.7,0,1.2-0.1,1.6-0.4
				c0.4-0.3,0.7-0.7,0.9-1.3l0.5-1.2l-5-11.8h2.2l3.8,9.5h0l3.8-9.5h2.1l-5.5,13c-0.5,1.1-1,1.9-1.7,2.4
				C345.7,98.8,344.9,99,343.8,99z"/>
		</g>
		<g id="XMLID_95_">
			<path id="XMLID_116_" class="st1" d="M154.7,99h-7.1V44.4H168c6.8,0,12,1.3,15.6,3.8c3.6,2.6,5.4,6.4,5.4,11.5
				c0,4.4-1.2,7.8-3.7,10.2c-2.5,2.3-5.8,3.9-10,4.8L189.9,99h-7.7l-14.1-23.5l-3-5.6c4.6,0,10.7-0.9,13.2-2.3
				c2.5-1.4,3.8-4,3.8-7.7c0-3.6-1.2-6.1-3.7-7.5c-2.5-1.4-6.1-2.1-10.9-2.1h-12.9V99z"/>
			<g id="XMLID_101_">
				<g id="XMLID_112_">
					<rect id="XMLID_114_" x="121.8" y="92" class="st2" width="2.4" height="6.8"/>
				</g>
				<g id="XMLID_108_">
					<polygon id="XMLID_111_" class="st3" points="129.7,45 123.1,93.2 154.5,32.2 					"/>
					<polygon id="XMLID_109_" class="st2" points="154.5,32.2 123.1,93.2 154.5,60.7 					"/>
				</g>
				<g id="XMLID_103_">
					<polygon id="XMLID_106_" class="st2" points="123.2,92.9 115.2,61.9 97.2,52.7 					"/>
					<polygon id="XMLID_104_" class="st3" points="97.2,75.4 123.2,92.9 97.2,52.7 					"/>
				</g>
			</g>
			<path id="XMLID_98_" class="st1" d="M56.9,99V44.4h7.5l31.2,43.2h0.2V44.4h6.7V99h-6.3L63.7,54.6h-0.2V99H56.9z"/>
			<path id="XMLID_97_" class="st1" d="M45.4,75.8c-0.2,1.7-0.6,3.2-1.1,4.6c-0.9,2.8-2.3,5.1-4,7c-1.7,1.9-3.7,3.3-6.1,4.3
				c-2.4,1-4.9,1.5-7.7,1.5c-2.8,0-5.4-0.5-7.8-1.5c-2.4-1-4.4-2.4-6.1-4.3c-1.7-1.9-3-4.2-3.9-7c-0.9-2.8-1.4-5.9-1.4-9.4
				c0-3.5,0.5-6.6,1.4-9.3c0.9-2.7,2.3-5.1,3.9-6.9c1.7-1.9,3.7-3.3,6.1-4.3c2.4-1,5-1.5,7.8-1.5c2.8,0,5.3,0.5,7.7,1.5
				c2.4,1,4.4,2.4,6.1,4.3c1.7,1.9,3,4.2,3.9,6.9L15.6,73.5l3,6.2l27.8-11.3c0,0,0,0,0,0l6.6-2.9c-0.3-2.2-1.1-4.2-1.8-6.2
				c-1.3-3.5-3.3-6.4-5.6-8.8c-2.4-2.4-5.2-4.3-8.4-5.5c-3.2-1.3-6.8-1.9-10.6-1.9c-3.8,0-7.4,0.6-10.6,1.9
				c-3.2,1.3-6.1,3.1-8.4,5.5c-2.4,2.4-4.2,5.4-5.6,8.8c-1.4,3.5-2,7.4-2,11.7c0,4.3,0.7,8.2,2,11.7c1.4,3.5,3.2,6.4,5.6,8.8
				c2.4,2.4,5.2,4.3,8.4,5.5c3.2,1.3,6.8,1.9,10.6,1.9c3.8,0,7.4-0.6,10.6-1.9c3.2-1.3,6-3.1,8.4-5.5c2.4-2.4,4.2-5.3,5.5-8.8
				c1.2-3,1.8-6.4,2-10.1L45.4,75.8z"/>
		</g>
	</g>
</g>
</svg>
